HIERARCHY
ROOT ui
{
	 OFFSET 0 0 0
	 CHANNELS 3 XPosition YPosition Z Position
	 EndSite
	 {
	 OFFSET 0 -1 0
	 }
}
ROOT li
{
	 OFFSET 0 0 0
	 CHANNELS 3 XPosition YPosition Z Position
	 EndSite
	 {
	 OFFSET 0 -1 0
	 }
}
ROOT ul
{
	 OFFSET 0 0 0
	 CHANNELS 3 XPosition YPosition Z Position
	 EndSite
	 {
	 OFFSET 0 -1 0
	 }
}
ROOT ll
{
	 OFFSET 0 0 0
	 CHANNELS 3 XPosition YPosition Z Position
	 EndSite
	 {
	 OFFSET 0 -1 0
	 }
}
ROOT tt
{
	 OFFSET 0 0 0
	 CHANNELS 3 XPosition YPosition Z Position
	 EndSite
	 {
	 OFFSET 0 -1 0
	 }
}
ROOT tb
{
	 OFFSET 0 0 0
	 CHANNELS 3 XPosition YPosition Z Position
	 EndSite
	 {
	 OFFSET 0 -1 0
	 }
}
ROOT td
{
	 OFFSET 0 0 0
	 CHANNELS 3 XPosition YPosition Z Position
	 EndSite
	 {
	 OFFSET 0 -1 0
	 }
}
ROOT v
{
	 OFFSET 0 0 0
	 CHANNELS 3 XPosition YPosition Z Position
	 EndSite
	 {
	 OFFSET 0 -1 0
	 }
}
ROOT bn
{
	 OFFSET 0 0 0
	 CHANNELS 3 XPosition YPosition Z Position
	 EndSite
	 {
	 OFFSET 0 -1 0
	 }
}
MOTION
Frames: 27
Frame Time: 0.002
0.005982673168182373	0.0020250890254974365	0		0.4264920043945313	-2.317880126953125	0		-1.0687352294921875	0.3623351135253906	0		-0.8655322875976562	-2.5867783203125	0		1.6231702880859376	-0.6160439453125	0		3.381948486328125	-0.5325368041992188	0		4.4820830078125	-0.42322674560546875	0		5.94622705078125	0.5206964111328125	0		-0.11673430633544922	5.93617578125	0		
0.008967695236206054	0.0044154758453369145	0		0.4265674743652344	-2.31840966796875	0		-1.06882568359375	0.3617130432128906	0		-0.8956138916015625	-2.5968505859375	0		1.623140380859375	-0.6164994506835938	0		3.381913330078125	-0.532883544921875	0		4.49885986328125	-0.43380734252929687	0		5.94198486328125	0.5125809936523438	0		-0.11716944122314453	5.9356123046875	0		
0.008898781776428224	0.003907438039779663	0		0.45055517578125	-2.32431689453125	0		-1.06891748046875	0.36113571166992187	0		-0.8656982421875	-2.60794873046875	0		1.613917236328125	-0.6277418823242188	0		3.381879150390625	-0.5331747436523437	0		4.48610595703125	-0.41779800415039064	0		5.94188330078125	0.5124544067382812	0		-0.11858396148681641	5.93711376953125	0		
0.005790473937988282	5.000190138816833E-4	0		0.4226583557128906	-2.32425244140625	0		-1.0571759033203125	0.35039208984375	0		-0.86965087890625	-2.612396240234375	0		1.610850830078125	-0.6310428466796875	0		3.361986328125	-0.5260587158203125	0		4.49879296875	-0.43418997192382813	0		5.9369541015625	0.5214740600585938	0		-0.25141995239257814	5.91598681640625	0		
0.005760386943817138	8.46719965338707E-5	0		0.4466938171386719	-2.3300625	0		-1.057229736328125	0.3499046936035156	0		-0.8647517700195313	-2.62695703125	0		1.610863525390625	-0.6313494262695313	0		3.36199169921875	-0.52624658203125	0		4.4950224609375	-0.4212322082519531	0		5.94586962890625	0.5203019409179688	0		-0.2366767578125	5.9252880859375	0		
0.005765966892242432	-2.8619301319122314E-4	0		0.4427025146484375	-2.339331298828125	0		-1.0481090087890625	0.3573009948730469	0		-0.8808438110351563	-2.643104248046875	0		1.61091259765625	-0.6316095581054687	0		3.402203369140625	-0.5170908203125	0		4.510142578125	-0.41655789184570313	0		5.94583935546875	0.5203409423828125	0		-0.27019796752929687	5.9184814453125	0		
0.01293746280670166	0.006262150764465332	0		0.46305462646484374	-2.331979736328125	0		-1.0440147705078124	0.36082794189453127	0		-0.8457002563476562	-2.64910693359375	0		1.6199532470703124	-0.6349813842773437	0		3.375364013671875	-0.5127068481445313	0		4.51637841796875	-0.4076744384765625	0		5.93687158203125	0.5215896606445313	0		-0.10606546020507812	5.94525732421875	0		
0.008968950271606446	0.0020459320545196534	0		0.4322955017089844	-2.333692626953125	0		-1.053078125	0.3526225280761719	0		-0.818636962890625	-2.662925048828125	0		1.621943359375	-0.6441843872070312	0		3.38837841796875	-0.5199740600585937	0		4.52338623046875	-0.41475384521484376	0		5.94177685546875	0.51264892578125	0		-0.12056990814208984	5.93520751953125	0		
0.00607385778427124	-0.0011502150297164916	0		0.45550372314453125	-2.3413076171875	0		-1.0570169677734376	0.3483635559082031	0		-0.863376220703125	-2.6684541015625	0		1.6221488037109375	-0.6443110961914063	0		3.388574462890625	-0.5199671630859375	0		4.51669677734375	-0.40754055786132815	0		5.93291357421875	0.514005126953125	0		-0.12086216735839844	5.93494921875	0		
0.006288496017456055	-0.0013641339540481567	0		0.4388002624511719	-2.347191650390625	0		-1.0568297119140626	0.3480664672851562	0		-0.8232872924804687	-2.688424560546875	0		1.6841796875	-0.6584684448242187	0		3.392123046875	-0.5029707946777344	0		4.521787109375	-0.41648663330078123	0		5.9420693359375	0.5130995483398437	0		-0.10694121551513672	5.94448193359375	0		
0.0065613980293273925	-0.001546233057975769	0		0.46520538330078126	-2.3507861328125	0		-1.056584716796875	0.34779928588867187	0		-0.8750154418945313	-2.7007763671875	0		1.6314442138671874	-0.6616036987304688	0		3.389694580078125	-0.4878326110839844	0		4.5395380859375	-0.3906038513183594	0		5.94230078125	0.513392333984375	0		-0.25369021606445313	5.9138076171875	0		
0.014010079383850097	0.005179563999176026	0		0.44181362915039063	-2.3454921875	0		-1.052215087890625	0.35149124145507815	0		-0.8076834716796875	-2.714146484375	0		1.693595458984375	-0.67568603515625	0		3.401959228515625	-0.49391793823242186	0		4.53989892578125	-0.39039187622070315	0		5.937744140625	0.5228016357421875	0		-0.25383705139160156	5.91363330078125	0		
0.007274518966674805	-0.0018270560503005982	0		0.46426211547851565	-2.352958740234375	0		-1.055927734375	0.34734765625	0		-0.8521786499023437	-2.7195712890625	0		1.6489541015625	-0.67991064453125	0		3.431582275390625	-0.48226968383789065	0		4.551294921875	-0.39134375	0		5.9332392578125	0.5322329711914062	0		-0.12155458068847656	5.9342314453125	0		
0.007705452919006347	-0.0019321149587631225	0		0.4617937622070313	-2.357976318359375	0		-1.0605914306640625	0.34324432373046876	0		-0.8149293212890625	-2.743368408203125	0		1.6853314208984376	-0.6864963989257813	0		3.4162568359375	-0.46983535766601564	0		4.55001123046875	-0.3760592651367187	0		5.93847509765625	0.5235109252929687	0		-0.25396224975585935	5.913359375	0		
0.005125704765319824	-0.004966814041137696	0		0.4604112548828125	-2.3599931640625	0		-1.0601473388671876	0.34307666015625	0		-0.8593606567382812	-2.749756103515625	0		1.685634765625	-0.6994518432617187	0		3.42589697265625	-0.46181320190429687	0		4.55945849609375	-0.37894866943359373	0		5.94375244140625	0.5147963256835938	0		-0.23877818298339842	5.92299853515625	0		
0.011726064682006836	8.619639873504639E-4	0		0.43413998413085936	-2.3565751953125	0		-1.0596728515625	0.34292840576171874	0		-0.8149158325195313	-2.76562744140625	0		1.6920677490234375	-0.7064969482421875	0		3.445512451171875	-0.45694992065429685	0		4.57128759765625	-0.36086886596679685	0		5.94834814453125	0.52309765625	0		-0.23675018310546875	5.9208779296875	0		
0.016309913635253907	0.004739728927612305	0		0.46380435180664065	-2.35808544921875	0		-1.0591796875	0.3427974853515625	0		-0.8423483276367187	-2.774270751953125	0		1.7044161376953124	-0.7196311645507812	0		3.451296142578125	-0.442845947265625	0		4.58797900390625	-0.3518682861328125	0		5.948560546875	0.5074676818847657	0		-0.23862026977539064	5.9228388671875	0		
0.009714093208312988	-0.0021848530769348145	0		0.4843335266113281	-2.367429443359375	0		-1.072864501953125	0.3319164123535156	0		-0.747017822265625	-2.797953125	0		1.726049560546875	-0.715908447265625	0		3.445997802734375	-0.4335538024902344	0		4.592623046875	-0.3456645202636719	0		5.93619775390625	0.5170478515625	0		-0.12033924102783203	5.9318095703125	0		
-0.06675212860107421	6.090300157666206E-5	0		0.45700067138671874	-2.3669658203125	0		-1.07731298828125	0.3358940124511719	0		-0.8145159912109375	-2.8089052734375	0		1.729204345703125	-0.7398744506835937	0		3.467546630859375	-0.4327082214355469	0		4.6271142578125	-0.34795849609375	0		5.94053662109375	0.5093421020507812	0		-0.1202259521484375	5.931767578125	0		
0.0035837600231170656	-0.009127294540405274	0		0.5169428100585938	-2.40895068359375	0		-1.075989013671875	0.32778314208984377	0		-0.7402662353515626	-2.834205078125	0		1.765625244140625	-0.7463857421875	0		3.44948486328125	-0.40620294189453127	0		4.6159306640625	-0.328494140625	0		5.94609716796875	0.5166105346679688	0		-0.25150558471679685	5.909904296875	0		
0.011138442039489747	-0.002264843940734863	0		0.46461834716796874	-2.403067626953125	0		-1.0755692138671875	0.3276964111328125	0		-0.804777587890625	-2.84119873046875	0		1.76587939453125	-0.760298095703125	0		3.486960693359375	-0.4056251220703125	0		4.646583984375	-0.3167315979003906	0		5.95450439453125	0.5168181762695313	0		-0.23624533081054688	5.92061865234375	0		
0.009664962768554688	0.005750586986541748	0		0.5180608520507812	-2.40892822265625	0		-1.0751932373046875	0.3276180419921875	0		-0.772340087890625	-2.84878662109375	0		1.7642684326171876	-0.7631810302734375	0		3.4965087890625	-0.39759207153320314	0		4.6500947265625	-0.3105335388183594	0		5.94616650390625	0.5352864379882812	0		-0.2513672180175781	5.90983642578125	0		
0.014923930168151855	6.568610072135926E-4	0		0.49632089233398435	-2.421551513671875	0		-1.0880635986328124	0.3157623291015625	0		-0.7460794677734375	-2.8632646484375	0		1.7964991455078125	-0.772623046875	0		3.51103369140625	-0.3876496887207031	0		4.64869921875	-0.29526840209960936	0		5.94207080078125	0.5106586303710937	0		-0.25133982849121095	5.9098095703125	0		
0.012153629302978516	-0.0023028180599212644	0		0.5097335815429688	-2.420749267578125	0		-1.0928656005859374	0.3117808837890625	0		-0.7887191162109375	-2.866608642578125	0		1.7945220947265625	-0.7905089111328125	0		3.495529052734375	-0.3752261962890625	0		4.6620390625	-0.29226092529296877	0		5.94232373046875	0.5109427185058594	0		-0.1180123291015625	5.92961328125	0		
-0.06461756896972656	-5.627100169658661E-5	0		0.4888868408203125	-2.43039013671875	0		-1.0967423095703126	0.3077888488769531	0		-0.73684814453125	-2.895495361328125	0		1.8414449462890625	-0.81019677734375	0		3.522631103515625	-0.382511962890625	0		4.6694658203125	-0.27917019653320313	0		5.9514853515625	0.5100614929199219	0		-0.23527841186523438	5.9185068359375	0		
0.01247119140625	-0.002315393924713135	0		0.5249053344726563	-2.44295849609375	0		-1.1017044677734376	0.3038179931640625	0		-0.78784716796875	-2.909702392578125	0		1.8474962158203125	-0.8162215576171875	0		3.554050537109375	-0.3648746643066406	0		4.6808994140625	-0.26015966796875	0		5.9557080078125	0.518241455078125	0		-0.23344668579101563	5.91645849609375	0		
-0.05836746978759766	0.00682887601852417	0		0.5011065979003906	-2.437555419921875	0		-1.095759521484375	0.2996731872558594	0		-0.729703369140625	-2.90967822265625	0		1.8583218994140625	-0.8303316040039063	0		3.5433154296875	-0.3505657958984375	0		4.7029130859375	-0.2613397216796875	0		5.95085693359375	0.5275469360351562	0		-0.24981378173828125	5.90670458984375	0		
